<?xml version="1.0" encoding="iso-8859-1"?>
<!-- Generator: Adobe Illustrator 26.0.1, SVG Export Plug-In . SVG Version: 6.00 Build 0)  -->
<svg version="1.1" id="&#x56FE;&#x5C42;_1" xmlns="http://www.w3.org/2000/svg" xmlns:xlink="http://www.w3.org/1999/xlink" x="0px"
	 y="0px" viewBox="0 0 250 250" style="enable-background:new 0 0 250 250;" xml:space="preserve">
<path style="fill:#7F6CAE;" d="M84.582,161.013c-6.824,7.427-16.614,12.084-27.495,12.084c-9.822,0-18.752-3.798-25.417-9.999
	L20.659,174.7c9.534,8.924,22.339,14.397,36.429,14.397c15.945,0,30.247-7.006,40.02-18.098L84.582,161.013z"/>
<path style="fill:#229AD7;" d="M60.339,151.226c-10.075,0.452-20.301-3.151-28.015-10.825c-6.963-6.927-10.615-15.918-10.967-25.015
	l-15.989,0.458c0.465,13.051,5.682,25.962,15.671,35.899c11.304,11.246,26.384,16.365,41.135,15.395L60.339,151.226z"/>
<path style="fill:#6CAF2E;" d="M51.427,126.985c-7.536-6.703-12.35-16.418-12.525-27.297c-0.158-9.82,3.496-18.811,9.589-25.575
	L36.714,63.289c-8.77,9.677-14.036,22.568-13.81,36.656c0.256,15.943,7.492,30.13,18.739,39.724L51.427,126.985z"/>
<path style="fill:#EEB717;" d="M60.365,103.651c-0.487-10.074,3.081-20.312,10.728-28.052c6.903-6.987,15.881-10.67,24.977-11.053
	l-0.514-15.987c-13.049,0.51-25.942,5.772-35.845,15.795c-11.207,11.343-16.274,26.441-15.253,41.188L60.365,103.651z"/>
<path style="fill:#E61C15;" d="M84.371,94.038c6.706-7.533,16.422-12.345,27.301-12.516c9.82-0.155,18.809,3.502,25.572,9.597
	l10.828-11.774c-9.674-8.773-22.563-14.044-36.651-13.821c-15.943,0.251-30.132,7.482-39.73,18.727L84.371,94.038z"/>
<path d="M83.421,102.653l-10.556-5.556c0,0-1.556,7.444-4.556,11.222s-6.556,7.066-6.556,7.066l4.222,8.489l6.611-2.778
	c0,0-4.167,4.889-6.278,6.556c-2.111,1.667-4.135,2.556-4.135,2.556l4.246,9.46l22.333-11.46L70.2,129.32
	c0,0,10.999-7.556,14.332-10.222c3.333-2.667,6.222-5.111,6.222-5.111l-9.889-5.667c0,0-1.556,3.222-2,4.222
	c-0.444,1-1.222,2-1.222,2h-9c0,0,5.889-3.889,9.222-6.778C81.199,104.875,83.421,102.653,83.421,102.653z"/>
<path d="M61.754,143.69l4.222,10.815c0,0,8.963-5.852,13.481-9.111c4.519-3.259,9.63-7.185,9.63-7.185s-9.407,2.315-15.333,3.5
	C67.828,142.894,61.754,143.69,61.754,143.69z"/>
<path d="M141.643,100.653l-9.889-3.556c0,0-0.615,3.901-3.205,10c-1.735,4.085-5.73,8.289-5.73,8.289l4.151,7.667l6.451-4.67
	c0,0-2.837,6.048-5.28,8.196c-1.858,1.634-5.053,3.519-5.053,3.519l3.639,9.24l16.814-10.32l-13.337,0.799
	c0,0,8.106-7.935,10.763-10.827c3.267-3.556,5.899-7.447,5.899-7.447l-8.667-5.222c0,0-0.637,2.28-1.426,4.296
	c-0.855,2.185-1.535,3.259-1.535,3.259l-6.688,0.556c0,0,2.781-2.889,6.457-6.352C137.961,105.296,141.643,100.653,141.643,100.653z
	"/>
<path d="M123.151,143.138l3.492,9.626c0,0,4.437-3.409,8.595-6.407c4.157-2.999,7.921-7.497,7.921-7.497s-5.663,1.501-11.115,2.591
	C126.591,142.542,123.151,143.138,123.151,143.138z"/>
<polygon points="85.606,105.542 107.532,105.542 112.143,99.431 119.476,105.542 119.476,107.431 105.532,107.431 105.532,149.542 
	109.532,149.542 113.162,143.394 120.347,149.542 120.347,151.468 81.754,151.468 81.754,149.69 96.569,149.616 96.569,107.505 
	85.569,107.505 "/>
<path d="M178.421,146.264v-6.556h-0.778l-2.944,6.833h-9.167v-7h4v2.444h1.944l5-2.556v-16.888h1.944v-1.001l-5.833-4.5h-0.889
	l-2.167,3.5h-4.037v-7h2.074v1.926h2.185l4.815-2.111v-9.778h1.926v-1.037l-5.889-5.037h-1l-2.889,4.185h-13.259v-0.963
	l-4.963-2.222h-2.074l0.111,18.037h2.63l4.37-2.926h2.944v6.926h-5.611l-5.167-3.056h-1.167v26h3.111l3.889-3.87h5.037
	c0,0,0,4.444,0,8.296s2.37,5.463,5.704,5.463s12.537,0,14.204,0c1.667,0,5-0.759,5-3.944
	C181.476,147.32,178.421,146.264,178.421,146.264z M169.569,122.543v5.962h-4.111v-5.962H169.569z M156.532,137.542h-5.074v-6.999
	h5.074V137.542z M156.532,128.505h-5.074v-5.962h5.074V128.505z M153.458,111.542v-8h14.074v8H153.458z M165.458,130.543h4.111
	v6.999h-4.111V130.543z"/>
<path d="M185.476,101.598h12.833l2.444-4.093h0.778l5.778,5.37v1.556h-1.778l-1.778,20.167h3.037l2.574,3.907l-1.833,0.815
	c0,0-0.833,16.5-2,20c-1.167,3.5-3.611,5.5-5.728,5.813c-2.143,0.317-4.106,0.521-4.106,0.521s0.889-3-0.667-4.5
	s-3.611-1.722-3.611-1.722v-0.889c0,0,6.278,0,7,0s2.222-3.611,2.167-7.222c-0.056-3.611,0-12.815,0-12.815h-8l-1.778,2.926h-1.333
	c0,0-2.944-2.852-3.556-2.926s-1.333,0-1.333,0v-1.926h1.889c0,0,0.833-5.87,0.944-10.759c0.111-4.889,0.167-7.111,0.167-7.111
	l7.944,1.889v0.944h-1.889c0,0-0.639,5.483-0.8,7.876c-0.168,2.493-0.422,6.901-0.422,6.901h5.111l0.889-22.778h-12.889
	L185.476,101.598z"/>
<polygon points="183.31,137.838 200.564,135.172 188.273,147.394 "/>
<path d="M233.754,134.209l-3.222,5.278h-3.889v-7.944h11.778v-1.852l-4.889-4.25l2.815,1.139c0,0,0.148-2.815,1.037-4.37
	c0.889-1.556,5.111-4.519,5.111-4.519s-4.296-0.37-7.556-0.889c-3.259-0.519-7.333-2.296-7.333-2.296s2.37-2.593,4.148-4.296
	c1.778-1.704,4.074-5.778,4.074-5.778h2.519v-1.407l-5.852-5.519h-1.704l-3.556,3.963h-19.704l0.037,2.074h3.852
	c0,0,0.444,2.667,2,5.889c1.556,3.222,5.037,6.815,5.037,6.815s-1.889,1.741-4.222,3.444c-2.333,1.704-7.667,4.482-7.667,4.482
	s5.525-0.133,8.154-1.096c2.63-0.963,6.846-4.274,6.846-4.274s2.328,1.595,4.745,3.138c2.626,1.677,5.552,2.936,5.552,2.936v0.565
	l-3.333,4.102h-2v-4.102h1.111v-0.843l-10.167-1v6h-8.111v1.944h8.167v8h-10v2h10.056v14.111h3.667l5.278-2.278v-11.833h15.333
	v-2.056l-6.333-5.278H233.754z M225.087,108.468c-1.704,2.556-3.185,4.074-3.185,4.074s-3.333-2.074-5.37-4.296
	c-2.037-2.222-3.482-4.63-3.482-4.63h14.445C227.495,103.616,226.702,106.046,225.087,108.468z"/>
<g>
	<path d="M122.395,163.554l-0.132,4.289h3.323l0.154-4.289h2.81l-0.376,11.035h-2.861l0.225-4.874H122.2l-0.181,4.874h-2.861
		l0.414-11.035H122.395z"/>
	<path d="M138.935,163.554c0.139,0,0.27,0.032,0.394,0.098s0.232,0.156,0.325,0.272c0.092,0.117,0.159,0.254,0.2,0.41
		c0.041,0.155,0.048,0.331,0.022,0.526l-0.318,9.729h-8.017c-0.139,0-0.271-0.032-0.395-0.098c-0.124-0.064-0.232-0.155-0.324-0.272
		c-0.093-0.117-0.16-0.257-0.201-0.419c-0.041-0.163-0.048-0.335-0.022-0.518l0.318-9.729H138.935z M133.627,165.426l-0.206,7.291
		h3.293l0.339-7.291H133.627z"/>
	<path d="M146.034,163.665l3.794,6.922l0.231-6.922h2.589l-0.376,11.035h-2.861l-3.794-6.746l-0.243,6.746h-2.578l0.428-11.035
		H146.034z"/>
	<path d="M164.409,166.732h-2.861l0.043-1.306h-3.427l-0.205,7.291h3.427l-0.008-4.139l2.864,0.025l-0.147,5.985h-8.017
		c-0.139,0-0.271-0.032-0.395-0.098c-0.124-0.064-0.232-0.155-0.324-0.272c-0.093-0.117-0.16-0.257-0.201-0.419
		c-0.041-0.163-0.048-0.335-0.022-0.518l0.318-9.729h9.015L164.409,166.732z"/>
	<path d="M172.574,172.347l0.126-2.242h-5.722l0.257-6.551h8.434l-0.061,3.178h-2.861l0.058-1.306h-2.727l-0.236,2.808h5.722
		l-0.213,5.049c0.013,0.183-0.008,0.354-0.061,0.518c-0.053,0.162-0.13,0.302-0.231,0.419s-0.216,0.208-0.346,0.272
		c-0.13,0.065-0.269,0.098-0.418,0.098h-7.52l0.025-2.242H172.574z"/>
	<path d="M181.851,163.554l-0.132,4.289h3.323l0.154-4.289h2.809l-0.376,11.035h-2.861l0.225-4.874h-3.338l-0.181,4.874h-2.861
		l0.414-11.035H181.851z"/>
	<path d="M199.381,163.554l-0.003,1.872h-4.724l-0.114,2.417h4.426l-0.003,1.872h-4.589l-0.073,3.002h5.007l-0.003,1.872h-8.017
		l0.428-11.035H199.381z"/>
	<path d="M205.11,163.554l3.479,6.922l0.231-6.922h2.444l-0.376,11.035h-2.861l-3.333-6.746l-0.243,6.746h-2.578l0.428-11.035
		H205.11z"/>
	<path d="M223.418,166.732h-2.861l0.043-1.306h-3.427l-0.205,7.291h3.427l-0.008-4.092l2.864-0.021l-0.147,5.985h-8.017
		c-0.139,0-0.271-0.032-0.395-0.098c-0.124-0.064-0.232-0.155-0.324-0.272c-0.093-0.117-0.16-0.257-0.201-0.419
		c-0.041-0.163-0.048-0.335-0.022-0.518l0.318-9.729h9.015L223.418,166.732z"/>
</g>
<g>
	<path style="fill:#C6191E;" d="M234.393,163.665h2.932l-4.477,6.551l-0.119,4.484h-2.861l0.119-4.484l-2.527-6.551h3.01
		l1.059,4.114L234.393,163.665z"/>
	<path style="fill:#C6191E;" d="M242.879,163.665l-0.525,11.035h-2.712l0.473-11.035H242.879z"/>
</g>
</svg>
